<?xml version="1.0" standalone="no"?>
<!DOCTYPE svg PUBLIC "-//W3C//DTD SVG 20010904//EN"
 "http://www.w3.org/TR/2001/REC-SVG-20010904/DTD/svg10.dtd">
<svg version="1.0" xmlns="http://www.w3.org/2000/svg"
 width="512.000000pt" height="512.000000pt" viewBox="0 0 512.000000 512.000000"
 preserveAspectRatio="xMidYMid meet">
<metadata>
Created by potrace 1.14, written by Peter Selinger 2001-2017
</metadata>
<g transform="translate(0.000000,512.000000) scale(0.100000,-0.100000)"
fill="#000000" stroke="none">
<path d="M1939 5075 c0 -25 0 -115 0 -200 0 -85 0 -161 0 -168 1 -10 37 -13
151 -15 l150 -3 0 216 0 215 -150 0 -150 0 -1 -45z"/>
<path d="M1117 4861 c-65 -38 -121 -71 -123 -74 -6 -5 14 -45 68 -137 18 -31
56 -95 83 -143 28 -48 53 -87 58 -87 4 0 37 18 73 40 36 22 68 40 70 40 1 0
27 15 57 33 l55 32 -104 180 c-57 99 -107 181 -111 182 -5 1 -61 -29 -126 -66z"/>
<path d="M2825 4754 c-55 -96 -101 -179 -103 -183 -3 -9 216 -140 246 -147 17
-5 20 1 112 166 14 25 44 77 68 117 23 39 42 74 42 76 0 6 -245 147 -256 147
-5 0 -54 -79 -109 -176z"/>
<path d="M1978 4415 c-2 -1 -23 -5 -48 -8 -326 -41 -631 -219 -833 -484 -359
-472 -331 -1139 66 -1579 l46 -51 -25 -54 c-15 -29 -30 -63 -34 -75 -6 -15
-26 -26 -72 -39 -117 -33 -255 -116 -324 -198 -57 -67 -67 -80 -94 -131 -54
-99 -79 -191 -85 -313 -14 -322 200 -605 522 -694 74 -21 100 -22 484 -22
l407 0 -8 -26 c-4 -14 -19 -51 -33 -81 -71 -156 -227 -524 -227 -536 0 -6 21
-20 48 -31 72 -32 215 -93 218 -93 3 0 56 122 208 475 l124 290 206 1 c117 0
206 -4 206 -9 0 -5 -6 -23 -14 -40 -8 -18 -49 -113 -91 -212 -42 -99 -85 -198
-95 -220 -28 -63 -70 -164 -70 -170 0 -3 5 -5 10 -5 6 0 29 -9 53 -19 148 -67
174 -79 195 -85 13 -4 22 -3 22 3 0 5 15 42 34 83 18 40 89 204 156 363 68
160 127 294 132 300 5 6 92 10 213 10 113 0 205 0 205 0 0 -1 -61 -142 -135
-315 -74 -173 -135 -320 -135 -326 0 -15 261 -127 271 -117 4 4 44 94 89 198
44 105 89 208 99 230 10 22 44 101 76 175 31 74 61 139 66 145 5 5 94 10 202
11 250 2 336 18 485 92 95 47 150 88 232 172 251 257 319 639 171 965 -58 127
-153 247 -263 332 -67 51 -216 130 -266 139 -24 5 -34 13 -38 33 -37 168 -99
314 -186 438 -193 275 -471 446 -810 498 -25 4 -38 11 -38 21 0 31 -62 200
-102 279 -172 339 -485 578 -863 660 -67 14 -346 30 -357 20z"/>
<path d="M3600 4223 c-149 -88 -265 -156 -268 -159 -2 -1 30 -61 71 -133 l74
-130 174 100 c95 55 179 105 185 110 10 8 -5 40 -58 132 -39 67 -73 125 -77
129 -3 3 -49 -19 -101 -49z"/>
<path d="M445 4223 c-14 -27 -30 -55 -35 -63 -26 -41 -81 -142 -78 -144 3 -3
110 -65 178 -104 19 -11 68 -39 108 -62 47 -27 77 -39 83 -33 5 5 41 63 78
128 l69 119 -28 15 c-15 9 -95 55 -178 104 -83 48 -156 87 -162 87 -5 0 -21
-21 -35 -47z"/>
<path d="M142 3175 l3 -150 210 0 210 0 3 150 2 150 -215 0 -215 0 2 -150z"/>
<path d="M525 2444 c-88 -52 -168 -97 -177 -101 -10 -3 -18 -8 -18 -10 0 -16
143 -253 152 -253 6 0 91 46 188 102 l177 102 -72 125 c-40 69 -76 126 -81
127 -5 2 -81 -40 -169 -92z"/>
</g>
</svg>
